<svg width="287" height="73" viewBox="0 0 287 73" fill="none" xmlns="http://www.w3.org/2000/svg">
<g clip-path="url(#clip0_330_7914)">
<path fill-rule="evenodd" clip-rule="evenodd" d="M28.3342 55.5539C29.2834 56.5028 30.0364 57.6294 30.5501 58.8693C31.0639 60.1092 31.3285 61.4381 31.3286 62.7803C31.3288 64.1224 31.0647 65.4514 30.5512 66.6915C30.0378 67.9315 29.2851 69.0583 28.3362 70.0075C27.3873 70.9566 26.2607 71.7096 25.0208 72.2234C23.7809 72.7372 22.4519 73.0017 21.1098 73.0019C18.3992 73.0023 15.7995 71.9258 13.8826 70.0094C9.48183 65.6095 5.9909 60.3858 3.60918 54.6366C1.22745 48.8873 0.00158691 42.7253 0.00158691 36.5022C0.00158691 30.2792 1.22745 24.1171 3.60918 18.3679C5.9909 12.6187 9.48183 7.39492 13.8826 2.99498C15.799 1.07858 18.3982 0.00195319 21.1084 0.00195323C23.8186 0.00195328 26.4178 1.07858 28.3342 2.99499C30.2506 4.91139 31.3273 7.5106 31.3273 10.2208C31.3273 12.931 30.2506 15.5302 28.3342 17.4466C25.8319 19.9487 23.847 22.9192 22.4927 26.1884C21.1385 29.4576 20.4415 32.9616 20.4415 36.5003C20.4415 40.0389 21.1385 43.5429 22.4927 46.8121C23.847 50.0813 25.8319 53.0518 28.3342 55.5539Z" fill="#FCBA37"/>
<path fill-rule="evenodd" clip-rule="evenodd" d="M66.4453 2.99494C67.3933 2.04436 68.5195 1.29017 69.7595 0.775575C70.9994 0.26098 72.3287 -0.00390607 73.6712 -0.00390606C75.0136 -0.00390606 76.3429 0.26098 77.5829 0.775575C78.8228 1.29017 79.949 2.04436 80.897 2.99494C85.2973 7.39513 88.7878 12.619 91.1692 18.3681C93.5507 24.1173 94.7764 30.2793 94.7764 36.5022C94.7764 42.7251 93.5507 48.887 91.1692 54.6362C88.7878 60.3854 85.2973 65.6092 80.897 70.0094C79.9481 70.9583 78.8216 71.711 77.5817 72.2246C76.3419 72.7381 75.0131 73.0024 73.6712 73.0024C72.3292 73.0024 71.0004 72.7381 69.7606 72.2246C68.5208 71.711 67.3942 70.9583 66.4453 70.0094C65.4964 69.0605 64.7437 67.934 64.2302 66.6942C63.7166 65.4544 63.4523 64.1255 63.4523 62.7836C63.4523 61.4416 63.7166 60.1128 64.2302 58.873C64.7437 57.6332 65.4964 56.5067 66.4453 55.5578C70.2235 51.7736 72.7924 46.9523 73.8259 41.7057C74.8595 36.4591 74.3111 31.0237 72.2503 26.0893L54.6156 43.728C52.6992 45.6444 50.1 46.721 47.3897 46.721C44.6795 46.721 42.0803 45.6444 40.1639 43.728C38.2475 41.8116 37.1709 39.2124 37.1709 36.5022C37.1709 33.792 38.2475 31.1928 40.1639 29.2764L66.4453 2.99494Z" fill="#FCBA37"/>
<path d="M108.427 57.897C106.904 57.897 105.726 57.477 104.894 56.6371C104.062 55.7971 103.653 54.6196 103.666 53.1046V21.3401C103.666 19.7701 104.104 18.5782 104.98 17.7644C105.857 16.9507 107.104 16.5398 108.721 16.532C109.833 16.4787 110.937 16.7515 111.896 17.317C112.808 17.9796 113.544 18.8538 114.043 19.8643L126.344 41.946L124.338 41.946L136.588 19.8525C137.118 18.8466 137.871 17.9753 138.79 17.3052C139.749 16.7398 140.853 16.4669 141.965 16.5202C143.488 16.5202 144.666 16.931 145.498 17.7527C146.33 18.5743 146.739 19.7661 146.726 21.3283V53.0771C146.726 54.6052 146.327 55.7827 145.529 56.6096C144.731 57.4364 143.553 57.8564 141.997 57.8695C140.468 57.8695 139.291 57.4495 138.464 56.6096C137.637 55.7696 137.226 54.5922 137.232 53.0771V33.4092L138.433 33.4092L129.221 49.4269C128.786 50.1598 128.213 50.8011 127.533 51.3148C126.817 51.7282 126.005 51.9458 125.178 51.9458C124.351 51.9458 123.539 51.7282 122.823 51.3148C122.14 50.8124 121.574 50.1684 121.163 49.4269L111.861 33.3621L113.176 33.3621V53.0968C113.176 54.6249 112.775 55.8023 111.975 56.6292C111.174 57.4561 109.991 57.8786 108.427 57.897Z" fill="#FCBA37"/>
<path d="M167.065 58.0111C164.237 58.0766 161.433 57.4685 158.886 56.237C156.614 55.1038 154.724 53.33 153.45 51.1346C152.154 48.9209 151.507 46.3043 151.507 43.2847C151.472 41.1839 151.841 39.096 152.594 37.1343C153.28 35.3735 154.353 33.7894 155.734 32.499C157.152 31.1944 158.827 30.2011 160.652 29.5827C162.715 28.8905 164.881 28.5521 167.057 28.5819C170.197 28.5819 172.925 29.1732 175.241 30.356C177.501 31.476 179.381 33.237 180.645 35.4191C181.925 37.6145 182.563 40.2311 182.561 43.269C182.59 45.3592 182.221 47.4359 181.474 49.388C180.795 51.155 179.73 52.748 178.357 54.0508C176.945 55.3653 175.266 56.3611 173.435 56.971C171.385 57.6717 169.232 58.0233 167.065 58.0111ZM167.065 50.5145C168.064 50.5473 169.047 50.2635 169.875 49.7038C170.702 49.1441 171.332 48.337 171.673 47.3981C172.154 46.09 172.376 44.7011 172.329 43.3083C172.329 40.7518 171.834 38.911 170.845 37.7859C170.379 37.2419 169.799 36.8083 169.145 36.5164C168.491 36.2244 167.781 36.0816 167.065 36.0981C166.097 36.081 165.144 36.3397 164.318 36.8439C163.465 37.4027 162.805 38.2115 162.43 39.1596C161.923 40.4819 161.689 41.8932 161.743 43.3083C161.743 45.8228 162.239 47.6545 163.23 48.8032C163.7 49.3588 164.288 49.8013 164.952 50.0976C165.616 50.3939 166.338 50.5364 167.065 50.5145Z" fill="#FCBA37"/>
<path d="M200.879 58.0111C197.739 58.0111 195.012 57.4197 192.699 56.237C190.426 55.1058 188.536 53.3314 187.263 51.1346C185.955 48.9209 185.3 46.3043 185.3 43.2847C185.266 41.1839 185.635 39.0959 186.388 37.1343C187.075 35.3743 188.148 33.7904 189.528 32.499C190.947 31.196 192.622 30.2028 194.446 29.5827C196.51 28.8902 198.677 28.5518 200.855 28.5819C203.684 28.5168 206.487 29.1249 209.035 30.3559C211.295 31.4748 213.175 33.2361 214.439 35.4191C215.719 37.6145 216.358 40.2311 216.358 43.269C216.386 45.359 216.017 47.4354 215.271 49.388C214.59 51.1544 213.524 52.7471 212.151 54.0508C210.74 55.3661 209.063 56.3621 207.233 56.971C205.188 57.6694 203.04 58.0209 200.879 58.0111ZM200.879 50.5144C201.876 50.5464 202.859 50.2623 203.686 49.7026C204.512 49.1429 205.141 48.3364 205.482 47.398C205.967 46.0908 206.191 44.7015 206.142 43.3083C206.142 40.7518 205.646 38.911 204.654 37.7859C204.188 37.2446 203.608 36.8134 202.955 36.5236C202.302 36.2338 201.593 36.0925 200.879 36.1099C199.911 36.0943 198.958 36.3528 198.131 36.8557C197.278 37.4145 196.619 38.2233 196.243 39.1714C195.738 40.4942 195.505 41.9051 195.556 43.32C195.556 45.8346 196.052 47.6663 197.044 48.815C197.514 49.368 198.103 49.8079 198.767 50.1021C199.431 50.3963 200.153 50.5373 200.879 50.5144Z" fill="#FCBA37"/>
<path d="M225.476 57.8972C223.875 57.8972 222.636 57.4576 221.759 56.5784C220.883 55.6992 220.443 54.4223 220.44 52.7477V21.6818C220.44 19.9652 220.88 18.6779 221.759 17.8196C222.638 16.9614 223.877 16.5322 225.476 16.5322C227.117 16.5322 228.385 16.9614 229.279 17.8196C230.174 18.6779 230.623 19.9652 230.626 21.6818V52.7477C230.626 56.1781 228.909 57.8946 225.476 57.8972Z" fill="#FCBA37"/>
<path d="M241.093 57.897C239.414 57.897 238.126 57.4574 237.231 56.5782C236.336 55.699 235.889 54.4221 235.889 52.7475V33.8096C235.889 32.1716 236.318 30.913 237.176 30.0338C238.035 29.1547 239.264 28.7164 240.866 28.719C242.471 28.719 243.688 29.1586 244.528 30.0338C245.368 30.9091 245.788 32.1729 245.788 33.8096V36.1646L245.215 36.1646C245.5 34.0531 246.548 32.1193 248.162 30.7286C249.833 29.3606 251.926 28.6131 254.085 28.613C255.188 28.5738 256.02 28.8524 256.57 29.4412C257.119 30.0299 257.417 31.1289 257.457 32.7303C257.457 34.104 257.174 35.1912 256.601 35.9919C256.028 36.7926 254.941 37.2714 253.339 37.4245L252.024 37.5383C249.999 37.7267 248.531 38.2893 247.621 39.2261C246.71 40.1628 246.251 41.5444 246.243 43.3708V52.7553C246.243 54.4352 245.805 55.7121 244.928 56.5861C244.052 57.46 242.773 57.897 241.093 57.897Z" fill="#FCBA37"/>
<path d="M274.903 58.0108C271.473 58.0108 268.508 57.4103 266.009 56.2093C263.625 55.112 261.623 53.3286 260.259 51.0872C258.924 48.8788 258.257 46.2621 258.257 43.2373C258.2 40.5657 258.861 37.9278 260.173 35.5994C261.426 33.4359 263.246 31.6554 265.436 30.4499C267.78 29.1845 270.411 28.5451 273.074 28.5934C275.026 28.5673 276.965 28.9067 278.793 29.5942C280.46 30.228 281.965 31.2241 283.2 32.5105C284.444 33.8301 285.391 35.4015 285.975 37.1183C286.626 39.0526 286.944 41.083 286.917 43.1235C286.944 43.4338 286.901 43.7461 286.793 44.038C286.684 44.3298 286.512 44.5939 286.289 44.8112C285.871 45.1749 285.203 45.3568 284.287 45.3568L266.778 45.3568V40.5605L279.479 40.5605L278.565 41.3063C278.607 40.1346 278.412 38.9665 277.992 37.8719C277.653 37.0446 277.062 36.3445 276.304 35.8702C275.463 35.3863 274.503 35.1483 273.533 35.1833C272.454 35.156 271.39 35.4438 270.472 36.0115C269.586 36.6054 268.902 37.4539 268.509 38.445C268.013 39.7197 267.78 41.0813 267.822 42.4484V42.9626C267.822 45.6708 268.423 47.6071 269.624 48.7715C270.825 49.9359 272.684 50.5168 275.201 50.5142C276.172 50.5016 277.139 50.3965 278.09 50.2002C279.161 49.9985 280.212 49.7016 281.23 49.3131C282.038 48.9442 282.95 48.8733 283.805 49.113C284.491 49.3355 285.084 49.7784 285.492 50.3729C285.891 50.9672 286.117 51.6598 286.148 52.3746C286.183 53.1332 286.005 53.8865 285.634 54.549C285.21 55.2929 284.544 55.8682 283.746 56.1779C282.383 56.7993 280.953 57.2603 279.483 57.5516C277.976 57.8589 276.441 58.0127 274.903 58.0108Z" fill="#FCBA37"/>
</g>
<defs>
<clipPath id="clip0_330_7914">
<rect width="286.917" height="73" fill="white"/>
</clipPath>
</defs>
</svg>
